<?xml version="1.0" encoding="UTF-8"?><svg xmlns="http://www.w3.org/2000/svg" xmlns:xlink="http://www.w3.org/1999/xlink" height="166.6" preserveAspectRatio="xMidYMid meet" version="1.0" viewBox="0.0 -0.1 335.6 166.6" width="335.6" zoomAndPan="magnify"><g><g id="change1_1"><path d="M330.3,161.2H4.9V5.9h325.4V161.2z" fill="#DAE83B"/></g><g id="change2_2"><path d="M330.8,161.7H4.4V5.4h326.4V161.7z M5.4,160.7h324.4V6.4H5.4V160.7z" fill="#5548E4"/></g><g id="change3_1"><path d="M10,5.3C10,7.9,7.9,10,5.3,10S0.5,7.9,0.5,5.3s2.1-4.8,4.8-4.8S10,2.6,10,5.3z M5.3,156.5 c-2.6,0-4.8,2.1-4.8,4.8s2.1,4.8,4.8,4.8s4.8-2.1,4.8-4.8S7.9,156.5,5.3,156.5z M5.3,78.5c-2.6,0-4.8,2.1-4.8,4.8S2.6,88,5.3,88 s4.8-2.1,4.8-4.8S7.9,78.5,5.3,78.5z M330.3,0.5c-2.6,0-4.8,2.1-4.8,4.8s2.1,4.8,4.8,4.8s4.8-2.1,4.8-4.8S332.9,0.5,330.3,0.5z M167.6,0.5c-2.6,0-4.8,2.1-4.8,4.8s2.1,4.8,4.8,4.8s4.8-2.1,4.8-4.8S170.2,0.5,167.6,0.5z M330.3,156.5c-2.6,0-4.8,2.1-4.8,4.8 s2.1,4.8,4.8,4.8s4.8-2.1,4.8-4.8S332.9,156.5,330.3,156.5z M167.6,156.5c-2.6,0-4.8,2.1-4.8,4.8s2.1,4.8,4.8,4.8s4.8-2.1,4.8-4.8 S170.2,156.5,167.6,156.5z M330.3,78.5c-2.6,0-4.8,2.1-4.8,4.8s2.1,4.8,4.8,4.8s4.8-2.1,4.8-4.8S332.9,78.5,330.3,78.5z" fill="#FFFCF0"/></g><g id="change2_1"><path d="M330.3,166.5c-2.9,0-5.3-2.4-5.3-5.3c0-2.9,2.4-5.3,5.3-5.3c2.9,0,5.3,2.4,5.3,5.3 C335.6,164.2,333.2,166.5,330.3,166.5z M330.3,157c-2.4,0-4.3,1.9-4.3,4.3s1.9,4.3,4.3,4.3s4.3-1.9,4.3-4.3S332.7,157,330.3,157z M167.6,166.5c-2.9,0-5.3-2.4-5.3-5.3c0-2.9,2.4-5.3,5.3-5.3c2.9,0,5.3,2.4,5.3,5.3C172.9,164.2,170.5,166.5,167.6,166.5z M167.6,157c-2.4,0-4.3,1.9-4.3,4.3s1.9,4.3,4.3,4.3s4.3-1.9,4.3-4.3S170,157,167.6,157z M5.3,166.5c-2.9,0-5.3-2.4-5.3-5.3 c0-2.9,2.4-5.3,5.3-5.3c2.9,0,5.3,2.4,5.3,5.3C10.5,164.2,8.2,166.5,5.3,166.5z M5.3,157c-2.4,0-4.3,1.9-4.3,4.3s1.9,4.3,4.3,4.3 s4.3-1.9,4.3-4.3S7.6,157,5.3,157z M330.3,88.5c-2.9,0-5.3-2.4-5.3-5.3c0-2.9,2.4-5.3,5.3-5.3c2.9,0,5.3,2.4,5.3,5.3 C335.6,86.2,333.2,88.5,330.3,88.5z M330.3,79c-2.4,0-4.3,1.9-4.3,4.3s1.9,4.3,4.3,4.3s4.3-1.9,4.3-4.3S332.7,79,330.3,79z M5.3,88.5c-2.9,0-5.3-2.4-5.3-5.3C0,80.4,2.4,78,5.3,78c2.9,0,5.3,2.4,5.3,5.3C10.5,86.2,8.2,88.5,5.3,88.5z M5.3,79 C2.9,79,1,80.9,1,83.3s1.9,4.3,4.3,4.3s4.3-1.9,4.3-4.3S7.6,79,5.3,79z M330.3,10.5c-2.9,0-5.3-2.4-5.3-5.3s2.4-5.3,5.3-5.3 c2.9,0,5.3,2.4,5.3,5.3S333.2,10.5,330.3,10.5z M330.3,1C328,1,326,2.9,326,5.3s1.9,4.3,4.3,4.3s4.3-1.9,4.3-4.3S332.7,1,330.3,1z M167.6,10.5c-2.9,0-5.3-2.4-5.3-5.3s2.4-5.3,5.3-5.3c2.9,0,5.3,2.4,5.3,5.3S170.5,10.5,167.6,10.5z M167.6,1 c-2.4,0-4.3,1.9-4.3,4.3s1.9,4.3,4.3,4.3s4.3-1.9,4.3-4.3S170,1,167.6,1z M5.3,10.5C2.4,10.5,0,8.2,0,5.3S2.4,0,5.3,0 c2.9,0,5.3,2.4,5.3,5.3S8.2,10.5,5.3,10.5z M5.3,1C2.9,1,1,2.9,1,5.3s1.9,4.3,4.3,4.3s4.3-1.9,4.3-4.3S7.6,1,5.3,1z" fill="#5548E4"/></g></g></svg>